<?xml version="1.0" encoding="UTF-8" standalone="no"?>
<!-- Created with Inkscape (http://www.inkscape.org/) -->

<svg
   xmlns:dc="http://purl.org/dc/elements/1.1/"
   xmlns:cc="http://creativecommons.org/ns#"
   xmlns:rdf="http://www.w3.org/1999/02/22-rdf-syntax-ns#"
   xmlns:svg="http://www.w3.org/2000/svg"
   xmlns="http://www.w3.org/2000/svg"
   xmlns:sodipodi="http://sodipodi.sourceforge.net/DTD/sodipodi-0.dtd"
   xmlns:inkscape="http://www.inkscape.org/namespaces/inkscape"
   width="750"
   height="550"
   id="svg2"
   sodipodi:version="0.32"
   inkscape:version="0.91 r13725"
   version="1.1"
   sodipodi:docname="obsidian-api-schema.svg"
   inkscape:export-filename="obsidian-api-schema.png"
   inkscape:export-xdpi="90"
   inkscape:export-ydpi="90">
  <defs
     id="defs4" />
  <sodipodi:namedview
     id="base"
     pagecolor="#ffffff"
     bordercolor="#666666"
     borderopacity="1.0"
     inkscape:pageopacity="0.0"
     inkscape:pageshadow="2"
     inkscape:zoom="1"
     inkscape:cx="269.20578"
     inkscape:cy="235.10546"
     inkscape:document-units="px"
     inkscape:current-layer="layer2"
     inkscape:window-width="1920"
     inkscape:window-height="1043"
     inkscape:window-x="0"
     inkscape:window-y="0"
     showgrid="false"
     units="px"
     inkscape:window-maximized="1"
     inkscape:snap-smooth-nodes="false"
     inkscape:object-nodes="true">
    <inkscape:grid
       type="xygrid"
       id="grid3205" />
  </sodipodi:namedview>
  <metadata
     id="metadata7">
    <rdf:RDF>
      <cc:Work
         rdf:about="">
        <dc:format>image/svg+xml</dc:format>
        <dc:type
           rdf:resource="http://purl.org/dc/dcmitype/StillImage" />
        <dc:title></dc:title>
      </cc:Work>
    </rdf:RDF>
  </metadata>
  <g
     inkscape:groupmode="layer"
     id="layer2"
     inkscape:label="Content">
    <rect
       style="opacity:1;fill:#f1f1f1;fill-opacity:1;stroke:none;stroke-width:2;stroke-linecap:square;stroke-linejoin:round;stroke-miterlimit:4;stroke-dasharray:none;stroke-dashoffset:0;stroke-opacity:1"
       id="rect3279"
       width="746"
       height="481.99997"
       x="2"
       y="66.000031" />
    <text
       xml:space="preserve"
       style="font-style:normal;font-weight:normal;font-size:40px;line-height:0%;font-family:Sans;text-align:start;letter-spacing:0px;word-spacing:0px;text-anchor:start;fill:#4d4d4d;fill-opacity:1;stroke:none;stroke-width:1px;stroke-linecap:butt;stroke-linejoin:miter;stroke-opacity:1;"
       x="48.074219"
       y="129"
       id="text3459"
       sodipodi:linespacing="0%"><tspan
         sodipodi:role="line"
         id="tspan3461"
         x="48.074219"
         y="129"
         style="-inkscape-font-specification:Anatolian;font-family:Anatolian;font-weight:normal;font-style:normal;font-stretch:normal;font-variant:normal">My Awesome Site</tspan></text>
    <rect
       style="opacity:1;fill:#fff4d3;fill-opacity:1;stroke:none;stroke-width:2;stroke-linecap:square;stroke-linejoin:round;stroke-miterlimit:4;stroke-dasharray:none;stroke-dashoffset:0;stroke-opacity:1"
       id="rect3449"
       width="644"
       height="221"
       x="53"
       y="155" />
    <text
       xml:space="preserve"
       style="font-style:normal;font-weight:normal;font-size:40px;line-height:0%;font-family:Sans;text-align:start;letter-spacing:0px;word-spacing:0px;text-anchor:start;fill:#bf8e00;fill-opacity:1;stroke:none;stroke-width:1px;stroke-linecap:butt;stroke-linejoin:miter;stroke-opacity:1"
       x="188.125"
       y="276.08594"
       id="text3463"
       sodipodi:linespacing="0%"><tspan
         sodipodi:role="line"
         id="tspan3465"
         x="188.125"
         y="276.08594"
         style="font-style:normal;font-variant:normal;font-weight:normal;font-stretch:normal;font-family:Arial;-inkscape-font-specification:Arial">Application &lt;iframe/&gt;</tspan></text>
    <text
       sodipodi:linespacing="0%"
       id="text3467"
       y="492.08594"
       x="192.99805"
       style="font-style:normal;font-weight:normal;font-size:40px;line-height:0%;font-family:Sans;text-align:start;letter-spacing:0px;word-spacing:0px;text-anchor:start;fill:#bf8e00;fill-opacity:1;stroke:none;stroke-width:1px;stroke-linecap:butt;stroke-linejoin:miter;stroke-opacity:1"
       xml:space="preserve"><tspan
         style="font-style:normal;font-variant:normal;font-weight:normal;font-stretch:normal;font-family:Arial;-inkscape-font-specification:Arial"
         y="492.08594"
         x="192.99805"
         id="tspan3469"
         sodipodi:role="line">Integration Web Site</tspan></text>
    <path
       style="color:#000000;font-style:normal;font-variant:normal;font-weight:normal;font-stretch:normal;font-size:medium;line-height:normal;font-family:sans-serif;text-indent:0;text-align:start;text-decoration:none;text-decoration-line:none;text-decoration-style:solid;text-decoration-color:#000000;letter-spacing:normal;word-spacing:normal;text-transform:none;direction:ltr;block-progression:tb;writing-mode:lr-tb;baseline-shift:baseline;text-anchor:start;white-space:normal;clip-rule:nonzero;display:inline;overflow:visible;visibility:visible;opacity:1;isolation:auto;mix-blend-mode:normal;color-interpolation:sRGB;color-interpolation-filters:linearRGB;solid-color:#000000;solid-opacity:1;fill:#4d4d4d;fill-opacity:1;fill-rule:nonzero;stroke:none;stroke-width:2;stroke-linecap:square;stroke-linejoin:round;stroke-miterlimit:4;stroke-dasharray:none;stroke-dashoffset:0;stroke-opacity:1;color-rendering:auto;image-rendering:auto;shape-rendering:auto;text-rendering:auto;enable-background:accumulate"
       d="M 53 154 A 1.0001 1.0001 0 0 0 52 155 L 52 376 A 1.0001 1.0001 0 0 0 53 377 L 409 377 L 409 375 L 54 375 L 54 156 L 696 156 L 696 375 L 654 375 L 654 377 L 697 377 A 1.0001 1.0001 0 0 0 698 376 L 698 155 A 1.0001 1.0001 0 0 0 697 154 L 53 154 z "
       id="rect3536" />
    <g
       id="g3517">
      <path
         sodipodi:nodetypes="ccccccccccc"
         inkscape:connector-curvature="0"
         id="path3471"
         d="m 375,290 -45,35 25,0 0,95 -25,0 45,35 45,-35 -25,0 c 0,0 0,-62.66667 0,-95 l 25,0 z"
         style="fill:#252525;fill-opacity:1;fill-rule:evenodd;stroke:none;stroke-width:1px;stroke-linecap:butt;stroke-linejoin:miter;stroke-opacity:1" />
      <rect
         style="opacity:1;fill:#252525;fill-opacity:1;stroke:none;stroke-width:3;stroke-linecap:round;stroke-linejoin:round;stroke-miterlimit:4;stroke-dasharray:none;stroke-dashoffset:0;stroke-opacity:1"
         id="rect3196"
         width="40"
         height="39.999989"
         x="355"
         y="356.00003"
         ry="5.0000172"
         rx="5.0000172" />
      <path
         sodipodi:nodetypes="ccccc"
         inkscape:connector-curvature="0"
         style="opacity:0.46200005;fill:#765700;fill-opacity:1;stroke:none;stroke-width:3;stroke-linecap:round;stroke-linejoin:round;stroke-miterlimit:4;stroke-dasharray:none;stroke-dashoffset:0;stroke-opacity:1"
         d="m 395,353 -40,15.92484 0,4.04174 40,-15.96658 z"
         id="path3219" />
      <path
         inkscape:connector-curvature="0"
         style="opacity:0.46200005;fill:#765700;fill-opacity:1;stroke:none;stroke-width:3;stroke-linecap:round;stroke-linejoin:round;stroke-miterlimit:4;stroke-dasharray:none;stroke-dashoffset:0;stroke-opacity:1"
         d="m 395,360.90481 -40,16.10471 0,13.47537 40,-16.10474 0,-13.47534 z"
         id="rect3198" />
      <path
         sodipodi:nodetypes="ccsscccccccscccccsccccccsscsccscccsccccsccccs"
         style="opacity:1;fill:#ffbf0b;fill-opacity:1;stroke:none;stroke-width:1;stroke-linecap:square;stroke-linejoin:round;stroke-miterlimit:4;stroke-dasharray:none;stroke-dashoffset:0;stroke-opacity:1"
         d="m 355,353 0,6.09574 5.13428,5.13428 c 0.44194,0.44194 -1.34644,4.84 -1.34644,5.72388 0,0.88394 0.46265,1.34644 0.46265,1.34644 l 5.30273,5.30393 c -0.24483,0.24481 -0.24484,0.639 0,0.88381 l 0.88379,0.88382 c 0.24484,0.24487 0.63895,0.24487 0.88379,0 l 1.76758,-1.76763 3.31543,3.31425 c 0.61209,0.61206 1.59738,0.61206 2.20947,0 0.61209,-0.61206 0.61209,-1.59744 0,-2.2095 l -3.31543,-3.31544 3.09448,-3.09324 3.31421,3.31424 c 0.61209,0.61213 1.59739,0.61213 2.20948,0 0.61208,-0.61206 0.61208,-1.59743 0,-2.20949 l -3.31421,-3.31419 1.76758,-1.76763 c 0.24483,-0.24487 0.24483,-0.63887 0,-0.88375 l -0.88379,-0.88381 c -0.24484,-0.24481 -0.63896,-0.24481 -0.88379,0 l -5.32349,-5.32471 c 0,0 -0.44302,-0.44189 -1.3269,-0.44189 -0.88389,0 -5.27946,1.78588 -5.72388,1.34643 z m 29.25781,20.58552 c -0.15976,0 -0.31947,0.0619 -0.44189,0.18431 l -11.04859,11.04856 c -0.24483,0.24488 -0.24483,0.639 0,0.88382 l 0.88379,0.88375 c 0.24484,0.24481 0.63896,0.24481 0.88379,0 l 5.32349,5.32349 c 0,0 0.4418,0.44194 1.32568,0.44194 0.88389,0 5.28316,-1.78837 5.7251,-1.34644 l 8.09082,6.99505 -0.002,-5.09442 -4.99512,-4.99394 c -0.44194,-0.44193 1.34644,-4.84118 1.34644,-5.72506 0,-0.88393 -0.46265,-1.34643 -0.46265,-1.34643 l -5.30273,-5.30275 c 0.24483,-0.24482 0.24483,-0.63894 0,-0.88375 l -0.88379,-0.88382 c -0.12242,-0.12243 -0.28214,-0.18431 -0.4419,-0.18431 z"
         id="rect3214"
         inkscape:connector-curvature="0" />
    </g>
    <text
       xml:space="preserve"
       style="font-style:normal;font-weight:normal;font-size:40px;line-height:0%;font-family:Sans;text-align:start;letter-spacing:0px;word-spacing:0px;text-anchor:start;fill:#bf8e00;fill-opacity:1;stroke:none;stroke-width:1px;stroke-linecap:butt;stroke-linejoin:miter;stroke-opacity:1"
       x="416"
       y="389"
       id="text3524"
       sodipodi:linespacing="0%"><tspan
         sodipodi:role="line"
         id="tspan3526"
         x="416"
         y="389"
         style="font-style:normal;font-variant:normal;font-weight:normal;font-stretch:normal;font-family:Arial;-inkscape-font-specification:Arial;fill:#bf8e00;fill-opacity:1">Obsidian API</tspan></text>
  </g>
  <g
     inkscape:label="Browser"
     inkscape:groupmode="layer"
     id="layer1"
     transform="translate(0,-502.36216)"
     sodipodi:insensitive="true">
    <g
       id="g3378">
      <path
         id="rect3192"
         transform="translate(0,502.36216)"
         d="m 2.7011719,0 c -1.4968711,0 -2.7011719,1.2043008 -2.7011719,2.7011719 l 0,544.5976581 c 0,1.49687 1.2043008,2.70117 2.7011719,2.70117 l 744.5976581,0 c 1.49687,0 2.70117,-1.2043 2.70117,-2.70117 l 0,-544.5976581 c 0,-1.4968711 -1.2043,-2.7011719 -2.70117,-2.7011719 l -744.5976581,0 z m 0.7128906,36 743.1718775,0 c 0.78347,0 1.41406,0.630588 1.41406,1.414062 l 0,509.171878 c 0,0.78347 -0.63059,1.41406 -1.41406,1.41406 l -743.1718775,0 c -0.7834743,0 -1.4140625,-0.63059 -1.4140625,-1.41406 l 0,-509.171878 c 0,-0.783474 0.6305882,-1.414062 1.4140625,-1.414062 z"
         style="opacity:1;fill:#ababab;fill-opacity:1;stroke:none;stroke-width:1;stroke-linecap:square;stroke-linejoin:round;stroke-miterlimit:4;stroke-dasharray:none;stroke-dashoffset:0;stroke-opacity:1"
         inkscape:connector-curvature="0" />
      <g
         id="text3260"
         style="font-style:normal;font-weight:normal;font-size:24.77890587px;line-height:0%;font-family:Sans;text-align:start;letter-spacing:0px;word-spacing:0px;text-anchor:start;fill:#4d4d4d;fill-opacity:1;stroke:none;stroke-width:1px;stroke-linecap:butt;stroke-linejoin:miter;stroke-opacity:1">
        <path
           id="path3266"
           d="m 741.28486,513.66715 -5.52928,5.55348 5.52928,5.52928 -1.43979,1.46398 -5.55348,-5.55347 -5.55348,5.55347 -1.42769,-1.46398 5.51718,-5.52928 -5.51718,-5.55348 1.42769,-1.46399 5.55348,5.55348 5.55348,-5.55348 1.43979,1.46399 z"
           inkscape:connector-curvature="0" />
      </g>
    </g>
    <g
       id="g3383">
      <path
         transform="translate(0,502.36216)"
         id="rect3202"
         d="m 30,5 c -2.445459,0 -3.303759,2.2351825 -4.414062,4.4140625 l -12.529297,24.5859375 -11.056641,0 0,34 746,0 0,-34 -536.05664,0 -12.5293,-24.5859375 c -1.1103,-2.17888 -1.96861,-4.4140625 -4.41406,-4.4140625 l -165,0 z"
         style="opacity:1;fill:#d6d6d6;fill-opacity:1;stroke:none;stroke-width:1;stroke-linecap:square;stroke-linejoin:round;stroke-miterlimit:4;stroke-dasharray:none;stroke-dashoffset:0;stroke-opacity:1"
         inkscape:connector-curvature="0" />
      <g
         id="text3196"
         style="font-style:normal;font-weight:normal;font-size:14.16750717px;line-height:0%;font-family:Sans;text-align:start;letter-spacing:0px;word-spacing:0px;text-anchor:start;fill:#4d4d4d;fill-opacity:1;stroke:none;stroke-width:1px;stroke-linecap:butt;stroke-linejoin:miter;stroke-opacity:1">
        <path
           id="path3269"
           d="m 34.749197,517.32155 2.082237,0 2.635654,7.02841 2.64949,-7.02841 2.082236,0 0,10.32817 -1.362792,0 0,-9.06914 -2.663326,7.08375 -1.404298,0 -2.663326,-7.08375 0,9.06914 -1.355875,0 0,-10.32817 z"
           inkscape:connector-curvature="0" />
        <path
           id="path3271"
           d="m 50.14806,528.36916 q -0.539583,1.38355 -1.051495,1.80553 -0.511911,0.42198 -1.36971,0.42198 l -1.016906,0 0,-1.06533 0.747115,0 q 0.525747,0 0.816292,-0.24904 0.290544,-0.24904 0.643348,-1.17601 l 0.228286,-0.58109 -3.133731,-7.62334 1.348957,0 2.421205,6.05993 2.421204,-6.05993 1.348957,0 -3.403522,8.4673 z"
           inkscape:connector-curvature="0" />
        <path
           id="path3273"
           d="m 63.326333,518.69818 -1.895458,5.13987 3.797833,0 -1.902375,-5.13987 z m -0.788621,-1.37663 1.584159,0 3.936188,10.32817 -1.452723,0 -0.940811,-2.64949 -4.655631,0 -0.940811,2.64949 -1.473476,0 3.943105,-10.32817 z"
           inkscape:connector-curvature="0" />
        <path
           id="path3275"
           d="m 68.182579,519.90186 1.272862,0 1.591077,6.0461 1.58416,-6.0461 1.501147,0 1.591077,6.0461 1.58416,-6.0461 1.272862,0 -2.026894,7.74786 -1.501147,0 -1.667173,-6.35048 -1.67409,6.35048 -1.501147,0 -2.026894,-7.74786 z"
           inkscape:connector-curvature="0" />
        <path
           id="path3277"
           d="m 87.144072,523.45758 0,0.62259 -5.852398,0 q 0.08301,1.31437 0.788621,2.00614 0.712526,0.68486 1.97847,0.68486 0.733279,0 1.418134,-0.17986 0.691773,-0.17986 1.36971,-0.53959 l 0,1.20369 q -0.684855,0.29054 -1.404299,0.44273 -0.719443,0.15219 -1.45964,0.15219 -1.853951,0 -2.940035,-1.07916 -1.079165,-1.07917 -1.079165,-2.91928 0,-1.90238 1.023824,-3.01613 1.030741,-1.12067 2.774009,-1.12067 1.563406,0 2.469628,1.00998 0.913141,1.00307 0.913141,2.73251 z m -1.272862,-0.37356 q -0.01384,-1.04458 -0.588007,-1.66717 -0.567254,-0.6226 -1.508065,-0.6226 -1.06533,0 -1.708679,0.60184 -0.636431,0.60185 -0.733279,1.69485 l 4.53803,-0.007 z"
           inkscape:connector-curvature="0" />
        <path
           id="path3279"
           d="m 94.172481,520.13015 0,1.20368 q -0.539583,-0.27671 -1.120672,-0.41506 -0.581089,-0.13835 -1.203684,-0.13835 -0.947729,0 -1.425052,0.29054 -0.470406,0.29054 -0.470406,0.87163 0,0.44274 0.338969,0.69869 0.338968,0.24904 1.362792,0.47733 l 0.435817,0.0969 q 1.355875,0.29054 1.923128,0.82321 0.574172,0.52574 0.574172,1.47347 0,1.07917 -0.857798,1.70868 -0.850881,0.62951 -2.34511,0.62951 -0.622596,0 -1.300533,-0.12452 -0.67102,-0.1176 -1.418134,-0.35972 l 0,-1.31437 q 0.705608,0.36664 1.390463,0.55342 0.684855,0.17986 1.355875,0.17986 0.899304,0 1.383545,-0.30438 0.484241,-0.31129 0.484241,-0.87163 0,-0.51883 -0.352804,-0.79554 -0.345886,-0.27671 -1.528818,-0.53266 l -0.442734,-0.10377 q -1.182932,-0.24904 -1.708679,-0.76095 -0.525748,-0.51883 -0.525748,-1.41813 0,-1.09301 0.774786,-1.68793 0.774786,-0.59492 2.199838,-0.59492 0.705608,0 1.328203,0.10376 0.622596,0.10377 1.148343,0.3113 z"
           inkscape:connector-curvature="0" />
        <path
           id="path3281"
           d="m 99.623651,520.79425 q -1.023823,0 -1.618748,0.80246 -0.594925,0.79554 -0.594925,2.186 0,1.39046 0.588007,2.19292 0.594925,0.79554 1.625666,0.79554 1.016909,0 1.611829,-0.80246 0.59493,-0.80246 0.59493,-2.186 0,-1.37663 -0.59493,-2.17909 -0.59492,-0.80937 -1.611829,-0.80937 z m 0,-1.07916 q 1.660259,0 2.607979,1.07916 0.94773,1.07917 0.94773,2.98846 0,1.90237 -0.94773,2.98846 -0.94772,1.07916 -2.607979,1.07916 -1.667172,0 -2.614901,-1.07916 -0.940811,-1.08609 -0.940811,-2.98846 0,-1.90929 0.940811,-2.98846 0.947729,-1.07916 2.614901,-1.07916 z"
           inkscape:connector-curvature="0" />
        <path
           id="path3283"
           d="m 111.31462,521.38918 q 0.47732,-0.8578 1.14142,-1.26595 0.6641,-0.40814 1.56341,-0.40814 1.2106,0 1.86778,0.85088 0.65719,0.84396 0.65719,2.40737 l 0,4.67638 -1.27978,0 0,-4.63488 q 0,-1.11375 -0.39431,-1.65334 -0.39431,-0.53958 -1.20369,-0.53958 -0.98923,0 -1.5634,0.65719 -0.57417,0.65718 -0.57417,1.79169 l 0,4.37892 -1.27978,0 0,-4.63488 q 0,-1.12067 -0.39432,-1.65334 -0.39431,-0.53958 -1.21752,-0.53958 -0.97539,0 -1.54957,0.6641 -0.57417,0.65719 -0.57417,1.78478 l 0,4.37892 -1.27978,0 0,-7.74786 1.27978,0 0,1.20369 q 0.43582,-0.71253 1.04458,-1.0515 0.60876,-0.33896 1.4458,-0.33896 0.84397,0 1.43197,0.42889 0.59493,0.4289 0.87856,1.2452 z"
           inkscape:connector-curvature="0" />
        <path
           id="path3285"
           d="m 125.71733,523.45758 0,0.62259 -5.8524,0 q 0.083,1.31437 0.78862,2.00614 0.71252,0.68486 1.97847,0.68486 0.73328,0 1.41813,-0.17986 0.69178,-0.17986 1.36971,-0.53959 l 0,1.20369 q -0.68485,0.29054 -1.4043,0.44273 -0.71944,0.15219 -1.45964,0.15219 -1.85395,0 -2.94003,-1.07916 -1.07917,-1.07917 -1.07917,-2.91928 0,-1.90238 1.02383,-3.01613 1.03074,-1.12067 2.77401,-1.12067 1.5634,0 2.46963,1.00998 0.91314,1.00307 0.91314,2.73251 z m -1.27287,-0.37356 q -0.0138,-1.04458 -0.588,-1.66717 -0.56726,-0.6226 -1.50807,-0.6226 -1.06533,0 -1.70868,0.60184 -0.63643,0.60185 -0.73328,1.69485 l 4.53803,-0.007 z"
           inkscape:connector-curvature="0" />
        <path
           id="path3287"
           d="m 138.56354,517.66052 0,1.36279 q -0.79554,-0.38047 -1.50114,-0.56725 -0.70561,-0.18678 -1.3628,-0.18678 -1.14142,0 -1.76402,0.44273 -0.61568,0.44274 -0.61568,1.25903 0,0.68486 0.40815,1.03766 0.41506,0.34589 1.56341,0.56034 l 0.84396,0.17294 q 1.56341,0.29746 2.3036,1.05149 0.74712,0.74712 0.74712,2.00615 0,1.50114 -1.00999,2.27593 -1.00307,0.77478 -2.94695,0.77478 -0.73328,0 -1.56341,-0.16602 -0.82321,-0.16603 -1.70868,-0.49116 l 0,-1.43889 q 0.85088,0.47732 1.66717,0.71945 0.8163,0.24212 1.60492,0.24212 1.19676,0 1.84703,-0.47041 0.65027,-0.47041 0.65027,-1.34204 0,-0.76095 -0.47041,-1.18985 -0.46349,-0.4289 -1.52882,-0.64335 l -0.85088,-0.16602 q -1.5634,-0.3113 -2.26209,-0.9754 -0.69869,-0.6641 -0.69869,-1.84704 0,-1.36971 0.96156,-2.15833 0.96848,-0.78862 2.66333,-0.78862 0.72636,0 1.48039,0.13144 0.75403,0.13144 1.54265,0.39431 z"
           inkscape:connector-curvature="0" />
        <path
           id="path3289"
           d="m 141.30988,519.90186 1.27287,0 0,7.74786 -1.27287,0 0,-7.74786 z m 0,-3.01613 1.27287,0 0,1.61183 -1.27287,0 0,-1.61183 z"
           inkscape:connector-curvature="0" />
        <path
           id="path3291"
           d="m 146.49818,517.70203 0,2.19983 2.62182,0 0,0.98924 -2.62182,0 0,4.20598 q 0,0.94773 0.25595,1.21752 0.26288,0.26979 1.05842,0.26979 l 1.30745,0 0,1.06533 -1.30745,0 q -1.47348,0 -2.03382,-0.5465 -0.56033,-0.55342 -0.56033,-2.00614 l 0,-4.20598 -0.9339,0 0,-0.98924 0.9339,0 0,-2.19983 1.27978,0 z"
           inkscape:connector-curvature="0" />
        <path
           id="path3293"
           d="m 157.42819,523.45758 0,0.62259 -5.8524,0 q 0.083,1.31437 0.78862,2.00614 0.71253,0.68486 1.97847,0.68486 0.73328,0 1.41813,-0.17986 0.69178,-0.17986 1.36971,-0.53959 l 0,1.20369 q -0.68485,0.29054 -1.40429,0.44273 -0.71945,0.15219 -1.45965,0.15219 -1.85395,0 -2.94003,-1.07916 -1.07917,-1.07917 -1.07917,-2.91928 0,-1.90238 1.02383,-3.01613 1.03074,-1.12067 2.77401,-1.12067 1.5634,0 2.46963,1.00998 0.91314,1.00307 0.91314,2.73251 z m -1.27287,-0.37356 q -0.0138,-1.04458 -0.588,-1.66717 -0.56726,-0.6226 -1.50807,-0.6226 -1.06533,0 -1.70868,0.60184 -0.63643,0.60185 -0.73328,1.69485 l 4.53803,-0.007 z"
           inkscape:connector-curvature="0" />
      </g>
      <g
         style="fill:#696969;fill-opacity:1"
         transform="matrix(0.71221202,0,0,0.71221202,-34.271155,236.89442)"
         id="g3245">
        <path
           inkscape:connector-curvature="0"
           id="path3218"
           style="font-style:normal;font-weight:normal;font-size:medium;line-height:0%;font-family:Sans;text-align:start;letter-spacing:0px;word-spacing:0px;text-anchor:start;fill:#696969;fill-opacity:1;stroke:none;stroke-width:1px;stroke-linecap:butt;stroke-linejoin:miter;stroke-opacity:1"
           d="m 128.20937,444.07269 q 0.15882,0.38822 0.15882,0.82939 0,0.44116 -0.17647,0.84703 -0.17646,0.40587 -0.47646,0.70586 l -7.05861,7.05861 q -0.28234,0.28235 -0.70586,0.47646 -0.38822,0.17647 -0.84703,0.17647 -0.45881,0 -0.84704,-0.17647 -0.38822,-0.17647 -0.70586,-0.47646 -0.31763,-0.33528 -0.4941,-0.7235 -0.15882,-0.38823 -0.15882,-0.82939 0,-0.45881 0.17647,-0.86468 0.17646,-0.40587 0.47645,-0.70586 l 3.28226,-3.28226 -15.81129,0 q -0.45881,0 -0.84704,-0.17646 -0.38822,-0.17647 -0.70586,-0.47646 -0.31764,-0.29999 -0.4941,-0.70586 -0.15882,-0.40587 -0.15882,-0.84703 0,-0.44117 0.15882,-0.84704 0.17646,-0.40587 0.4941,-0.70586 0.31764,-0.29999 0.70586,-0.47645 0.38823,-0.17647 0.84704,-0.17647 l 15.81129,0 -3.28226,-3.28225 q -0.29999,-0.3 -0.47645,-0.70587 -0.17647,-0.40587 -0.17647,-0.86468 0,-0.44116 0.15882,-0.82938 0.17647,-0.38823 0.4941,-0.72351 0.31764,-0.29999 0.70586,-0.47646 0.38823,-0.17646 0.84704,-0.17646 0.45881,0 0.84703,0.17646 0.42352,0.19412 0.70586,0.47646 l 7.05861,7.05861 q 0.33529,0.33529 0.49411,0.72351 z" />
        <path
           d="m 66.97483,444.07269 q -0.15882,0.38822 -0.15882,0.82939 0,0.44116 0.17647,0.84703 0.17646,0.40587 0.47646,0.70586 l 7.05861,7.05861 q 0.28234,0.28235 0.70586,0.47646 0.38822,0.17647 0.84703,0.17647 0.45881,0 0.84704,-0.17647 0.38822,-0.17647 0.70586,-0.47646 0.31763,-0.33528 0.4941,-0.7235 0.15882,-0.38823 0.15882,-0.82939 0,-0.45881 -0.17647,-0.86468 -0.17646,-0.40587 -0.47645,-0.70586 l -3.28226,-3.28226 15.81129,0 q 0.45881,0 0.84704,-0.17646 0.38822,-0.17647 0.70586,-0.47646 0.31764,-0.29999 0.4941,-0.70586 0.15882,-0.40587 0.15882,-0.84703 0,-0.44117 -0.15882,-0.84704 -0.17646,-0.40587 -0.4941,-0.70586 -0.31764,-0.29999 -0.70586,-0.47645 -0.38823,-0.17647 -0.84704,-0.17647 l -15.81129,0 3.28226,-3.28225 q 0.29999,-0.3 0.47645,-0.70587 0.17647,-0.40587 0.17647,-0.86468 0,-0.44116 -0.15882,-0.82938 -0.17647,-0.38823 -0.4941,-0.72351 -0.31764,-0.29999 -0.70586,-0.47646 -0.38823,-0.17646 -0.84704,-0.17646 -0.45881,0 -0.84703,0.17646 -0.42352,0.19412 -0.70586,0.47646 l -7.05861,7.05861 q -0.33529,0.33529 -0.49411,0.72351 z"
           style="font-style:normal;font-weight:normal;font-size:medium;line-height:0%;font-family:Sans;text-align:start;letter-spacing:0px;word-spacing:0px;text-anchor:start;fill:#696969;fill-opacity:1;stroke:none;stroke-width:1px;stroke-linecap:butt;stroke-linejoin:miter;stroke-opacity:1"
           id="path3226"
           inkscape:connector-curvature="0" />
        <g
           style="fill:#696969;fill-opacity:1"
           id="g3241"
           transform="matrix(0.52670269,0.85004958,-0.85004958,0.52670269,453.22717,83.717193)">
          <path
             sodipodi:nodetypes="ccccscccscccsccsccsscccsccccc"
             inkscape:connector-curvature="0"
             id="path3220"
             d="m 147.96517,437.33644 c -1.08895,0.0907 -2.13168,0.34115 -3.12988,0.74951 -1.21372,0.51044 -2.35924,1.28783 -3.43684,2.3314 -0.97551,1.02089 -1.74169,2.1552 -2.29751,3.40295 -0.52178,1.22505 -0.78153,2.56305 -0.78153,4.01498 0,1.45193 0.25975,2.78993 0.78153,4.01498 0.55582,1.24775 1.322,2.38206 2.29751,3.40295 1.0776,1.04357 2.22312,1.82096 3.43684,2.3314 1.27043,0.52178 2.60283,0.78341 3.99803,0.78341 1.44058,0 2.79728,-0.26163 4.06772,-0.78341 1.21372,-0.51044 2.35924,-1.28783 3.43683,-2.3314 0.97552,-1.02089 1.73981,-2.1552 2.29563,-3.40295 0.52178,-1.22505 0.78341,-2.56305 0.78341,-4.01498 0,-1.45193 -0.26163,-2.78993 -0.78341,-4.01498 -0.99749,-3.02867 -4.17587,-1.78734 -2.67038,1.10543 0.37432,0.88477 0.56119,1.86584 0.56119,2.94345 0,1.0776 -0.18687,2.03624 -0.56119,2.87564 -0.44238,0.97551 -0.99927,1.80336 -1.66852,2.48394 -0.74864,0.74866 -1.58208,1.31114 -2.50089,1.68547 -0.91879,0.37432 -1.90547,0.56119 -2.96039,0.56119 -1.00954,0 -1.9738,-0.18687 -2.89259,-0.56119 -0.94148,-0.39701 -1.77493,-0.9595 -2.50089,-1.68547 -0.71462,-0.72596 -1.26962,-1.5538 -1.66663,-2.48394 -0.37432,-0.88476 -0.5612,-1.86584 -0.5612,-2.94343 0,-1.07761 0.18688,-2.03626 0.5612,-2.87566 0.44238,-0.97551 0.99739,-1.80335 1.66663,-2.48394 0.74865,-0.74865 1.58209,-1.31113 2.50089,-1.68546 0.64656,-0.2609 1.32676,-0.43095 2.04139,-0.51035 z"
             style="font-style:normal;font-weight:normal;font-size:medium;line-height:0%;font-family:Sans;text-align:start;letter-spacing:0px;word-spacing:0px;text-anchor:start;fill:#696969;fill-opacity:1;stroke:none;stroke-width:1px;stroke-linecap:butt;stroke-linejoin:miter;stroke-opacity:1" />
          <path
             sodipodi:nodetypes="ssccccssccscscccccscccscsss"
             inkscape:connector-curvature="0"
             id="path3239"
             style="font-style:normal;font-weight:normal;font-size:medium;line-height:0%;font-family:Sans;text-align:start;letter-spacing:0px;word-spacing:0px;text-anchor:start;fill:#696969;fill-opacity:1;stroke:none;stroke-width:1px;stroke-linecap:butt;stroke-linejoin:miter;stroke-opacity:1"
             d="m 149.81215,437.16969 c 0.12591,0.1316 0.22386,0.28655 0.29399,0.46481 0.0701,0.17824 0.10181,0.36338 0.095,0.55542 -0.007,0.19203 -0.0469,0.3725 -0.12048,0.54139 l -2.59515,5.96082 c -0.0692,0.15896 -0.17394,0.3113 -0.31421,0.45704 -0.12882,0.13299 -0.28591,0.23598 -0.47128,0.30889 -0.18538,0.073 -0.37051,0.10464 -0.55543,0.095 -0.1849,-0.01 -0.36537,-0.0497 -0.54139,-0.12049 -0.18163,-0.085 -0.33893,-0.19188 -0.47195,-0.32069 -0.12592,-0.1316 -0.22387,-0.28655 -0.29399,-0.4648 -0.073,-0.18537 -0.10605,-0.37408 -0.0992,-0.56613 0.007,-0.19203 0.047,-0.37251 0.12049,-0.54139 l 1.20674,-2.77179 0.78229,-1.79191 -1.83406,-0.88183 -2.77179,-1.20674 c -0.16888,-0.0735 -0.32123,-0.17827 -0.45704,-0.31421 -0.13579,-0.13595 -0.24017,-0.2966 -0.3131,-0.48198 -0.0701,-0.17825 -0.10407,-0.3584 -0.10148,-0.54052 0.01,-0.1849 0.052,-0.37035 0.12697,-0.55629 0.0807,-0.1717 0.1854,-0.32406 0.31422,-0.45706 0.12882,-0.13299 0.2859,-0.23595 0.47128,-0.30888 0.18538,-0.073 0.37051,-0.10464 0.55543,-0.095 0.20197,0.0111 0.38243,0.0513 0.54138,0.12049 l 5.96083,2.59515 c 0.18876,0.0822 0.34608,0.18909 0.47195,0.32069 z" />
        </g>
      </g>
      <rect
         ry="1.41421"
         rx="1.4142098"
         y="540.86218"
         x="92.5"
         height="25"
         width="651"
         id="rect3252"
         style="opacity:1;fill:#ffffff;fill-opacity:1;stroke:#c2c2c2;stroke-width:0.99999982;stroke-linecap:square;stroke-linejoin:round;stroke-miterlimit:4;stroke-dasharray:none;stroke-dashoffset:0;stroke-opacity:1" />
      <g
         id="text3254"
         style="font-style:normal;font-weight:normal;font-size:14.16750717px;line-height:0%;font-family:Sans;text-align:start;letter-spacing:0px;word-spacing:0px;text-anchor:start;fill:#717171;fill-opacity:1;stroke:none;stroke-width:1px;stroke-linecap:butt;stroke-linejoin:miter;stroke-opacity:1">
        <path
           id="path3296"
           d="m 106.13425,553.55915 0,4.67638 -1.27286,0 0,-4.63487 q 0,-1.09992 -0.4289,-1.64642 -0.4289,-0.5465 -1.2867,-0.5465 -1.03074,0 -1.62566,0.65718 -0.59493,0.65719 -0.59493,1.79169 l 0,4.37892 -1.279776,0 0,-10.76398 1.279776,0 0,4.21981 q 0.45657,-0.69869 1.07225,-1.04457 0.6226,-0.34589 1.43197,-0.34589 1.33512,0 2.01998,0.83013 0.68485,0.82321 0.68485,2.42812 z"
           inkscape:connector-curvature="0" />
        <path
           id="path3298"
           d="m 109.94592,548.28784 0,2.19984 2.62182,0 0,0.98923 -2.62182,0 0,4.20598 q 0,0.94773 0.25596,1.21752 0.26287,0.26979 1.05841,0.26979 l 1.30745,0 0,1.06533 -1.30745,0 q -1.47348,0 -2.03381,-0.5465 -0.56034,-0.55341 -0.56034,-2.00614 l 0,-4.20598 -0.93389,0 0,-0.98923 0.93389,0 0,-2.19984 1.27978,0 z"
           inkscape:connector-curvature="0" />
        <path
           id="path3300"
           d="m 115.50777,548.28784 0,2.19984 2.62182,0 0,0.98923 -2.62182,0 0,4.20598 q 0,0.94773 0.25596,1.21752 0.26287,0.26979 1.05841,0.26979 l 1.30745,0 0,1.06533 -1.30745,0 q -1.47347,0 -2.03381,-0.5465 -0.56033,-0.55341 -0.56033,-2.00614 l 0,-4.20598 -0.9339,0 0,-0.98923 0.9339,0 0,-2.19984 1.27977,0 z"
           inkscape:connector-curvature="0" />
        <path
           id="path3302"
           d="m 121.04196,557.07336 0,4.10913 -1.27978,0 0,-10.69481 1.27978,0 0,1.17601 q 0.40122,-0.69177 1.00998,-1.02382 0.61568,-0.33897 1.46656,-0.33897 1.41122,0 2.28977,1.12067 0.88547,1.12067 0.88547,2.94695 0,1.82628 -0.88547,2.94696 -0.87855,1.12067 -2.28977,1.12067 -0.85088,0 -1.46656,-0.33205 -0.60876,-0.33897 -1.00998,-1.03074 z m 4.33049,-2.70484 q 0,-1.40429 -0.58109,-2.19983 -0.57417,-0.80246 -1.58415,-0.80246 -1.00999,0 -1.59108,0.80246 -0.57417,0.79554 -0.57417,2.19983 0,1.4043 0.57417,2.20676 0.58109,0.79554 1.59108,0.79554 1.00998,0 1.58415,-0.79554 0.58109,-0.80246 0.58109,-2.20676 z"
           inkscape:connector-curvature="0" />
        <path
           id="path3304"
           d="m 129.12878,556.47843 1.45964,0 0,1.7571 -1.45964,0 0,-1.7571 z m 0,-5.56877 1.45964,0 0,1.7571 -1.45964,0 0,-1.7571 z"
           inkscape:connector-curvature="0" />
        <path
           id="path3306"
           d="m 135.85281,547.90737 1.17602,0 -3.59722,11.64253 -1.17601,0 3.59721,-11.64253 z"
           inkscape:connector-curvature="0" />
        <path
           id="path3308"
           d="m 140.63988,547.90737 1.17602,0 -3.59722,11.64253 -1.17602,0 3.59722,-11.64253 z"
           inkscape:connector-curvature="0" />
        <path
           id="path3310"
           d="m 146.68598,554.34085 q -1.54266,0 -2.13758,0.35281 -0.59493,0.3528 -0.59493,1.20368 0,0.67794 0.44274,1.07917 0.44965,0.39431 1.21752,0.39431 1.05841,0 1.69484,-0.74712 0.64335,-0.75403 0.64335,-1.99922 l 0,-0.28363 -1.26594,0 z m 2.5388,-0.52574 0,4.42042 -1.27286,0 0,-1.17601 q -0.43582,0.70561 -1.08608,1.04458 -0.65027,0.33205 -1.59108,0.33205 -1.18985,0 -1.89546,-0.6641 -0.69869,-0.67102 -0.69869,-1.79169 0,-1.30746 0.87164,-1.97156 0.87855,-0.6641 2.6149,-0.6641 l 1.78477,0 0,-0.12452 q 0,-0.87855 -0.58109,-1.35587 -0.57417,-0.48424 -1.61875,-0.48424 -0.6641,0 -1.29361,0.1591 -0.62952,0.15911 -1.2106,0.47733 l 0,-1.17602 q 0.69869,-0.26979 1.35587,-0.40122 0.65718,-0.13836 1.27978,-0.13836 1.68101,0 2.51113,0.87163 0.83013,0.87164 0.83013,2.64258 z"
           inkscape:connector-curvature="0" />
        <path
           id="path3312"
           d="m 151.11332,550.48768 1.27286,0 1.59108,6.04609 1.58416,-6.04609 1.50115,0 1.59108,6.04609 1.58416,-6.04609 1.27286,0 -2.0269,7.74785 -1.50114,0 -1.66718,-6.35047 -1.67409,6.35047 -1.50114,0 -2.0269,-7.74785 z"
           inkscape:connector-curvature="0" />
        <path
           id="path3314"
           d="m 170.07482,554.04339 0,0.6226 -5.8524,0 q 0.083,1.31437 0.78862,2.00614 0.71252,0.68485 1.97847,0.68485 0.73328,0 1.41813,-0.17986 0.69178,-0.17986 1.36971,-0.53958 l 0,1.20368 q -0.68485,0.29055 -1.4043,0.44274 -0.71944,0.15219 -1.45964,0.15219 -1.85395,0 -2.94003,-1.07917 -1.07917,-1.07916 -1.07917,-2.91928 0,-1.90237 1.02383,-3.01613 1.03074,-1.12067 2.77401,-1.12067 1.5634,0 2.46963,1.00999 0.91314,1.00307 0.91314,2.7325 z m -1.27287,-0.37356 q -0.0138,-1.04457 -0.588,-1.66717 -0.56726,-0.62259 -1.50807,-0.62259 -1.06533,0 -1.70868,0.60184 -0.63643,0.60184 -0.73328,1.69484 l 4.53803,-0.007 z"
           inkscape:connector-curvature="0" />
        <path
           id="path3316"
           d="m 177.10323,550.71596 0,1.20369 q -0.53958,-0.27671 -1.12067,-0.41506 -0.58109,-0.13836 -1.20369,-0.13836 -0.94773,0 -1.42505,0.29055 -0.4704,0.29054 -0.4704,0.87163 0,0.44273 0.33896,0.69869 0.33897,0.24904 1.3628,0.47732 l 0.43581,0.0969 q 1.35588,0.29055 1.92313,0.82321 0.57417,0.52575 0.57417,1.47348 0,1.07916 -0.8578,1.70868 -0.85088,0.62951 -2.34511,0.62951 -0.62259,0 -1.30053,-0.12452 -0.67102,-0.1176 -1.41813,-0.35972 l 0,-1.31437 q 0.70561,0.36664 1.39046,0.55342 0.68486,0.17986 1.35588,0.17986 0.8993,0 1.38354,-0.30438 0.48424,-0.3113 0.48424,-0.87164 0,-0.51882 -0.3528,-0.79553 -0.34589,-0.27671 -1.52882,-0.53267 l -0.44273,-0.10376 q -1.18294,-0.24904 -1.70868,-0.76095 -0.52575,-0.51883 -0.52575,-1.41814 0,-1.093 0.77478,-1.68792 0.77479,-0.59493 2.19984,-0.59493 0.70561,0 1.32821,0.10377 0.62259,0.10376 1.14834,0.31129 z"
           inkscape:connector-curvature="0" />
        <path
           id="path3318"
           d="m 182.5544,551.38007 q -1.02383,0 -1.61875,0.80245 -0.59493,0.79554 -0.59493,2.186 0,1.39047 0.58801,2.19292 0.59492,0.79554 1.62567,0.79554 1.0169,0 1.61183,-0.80245 0.59492,-0.80246 0.59492,-2.18601 0,-1.37662 -0.59492,-2.17908 -0.59493,-0.80937 -1.61183,-0.80937 z m 0,-1.07917 q 1.66025,0 2.60798,1.07917 0.94773,1.07916 0.94773,2.98845 0,1.90238 -0.94773,2.98846 -0.94773,1.07917 -2.60798,1.07917 -1.66718,0 -2.61491,-1.07917 -0.94081,-1.08608 -0.94081,-2.98846 0,-1.90929 0.94081,-2.98845 0.94773,-1.07917 2.61491,-1.07917 z"
           inkscape:connector-curvature="0" />
        <path
           id="path3320"
           d="m 194.24536,551.97499 q 0.47732,-0.8578 1.14142,-1.26594 0.6641,-0.40815 1.56341,-0.40815 1.2106,0 1.86778,0.85088 0.65719,0.84396 0.65719,2.40737 l 0,4.67638 -1.27978,0 0,-4.63487 q 0,-1.11376 -0.39431,-1.65334 -0.39431,-0.53958 -1.20369,-0.53958 -0.98923,0 -1.5634,0.65718 -0.57417,0.65719 -0.57417,1.79169 l 0,4.37892 -1.27978,0 0,-4.63487 q 0,-1.12068 -0.39431,-1.65334 -0.39432,-0.53958 -1.21752,-0.53958 -0.9754,0 -1.54958,0.6641 -0.57417,0.65718 -0.57417,1.78477 l 0,4.37892 -1.27978,0 0,-7.74785 1.27978,0 0,1.20368 q 0.43582,-0.71252 1.04458,-1.05149 0.60876,-0.33897 1.4458,-0.33897 0.84397,0 1.43197,0.4289 0.59493,0.4289 0.87856,1.24519 z"
           inkscape:connector-curvature="0" />
        <path
           id="path3322"
           d="m 208.64807,554.04339 0,0.6226 -5.8524,0 q 0.083,1.31437 0.78862,2.00614 0.71252,0.68485 1.97847,0.68485 0.73328,0 1.41813,-0.17986 0.69178,-0.17986 1.36971,-0.53958 l 0,1.20368 q -0.68485,0.29055 -1.4043,0.44274 -0.71944,0.15219 -1.45964,0.15219 -1.85395,0 -2.94003,-1.07917 -1.07917,-1.07916 -1.07917,-2.91928 0,-1.90237 1.02383,-3.01613 1.03074,-1.12067 2.77401,-1.12067 1.5634,0 2.46963,1.00999 0.91314,1.00307 0.91314,2.7325 z m -1.27287,-0.37356 q -0.0138,-1.04457 -0.588,-1.66717 -0.56726,-0.62259 -1.50807,-0.62259 -1.06533,0 -1.70868,0.60184 -0.63643,0.60184 -0.73328,1.69484 l 4.53803,-0.007 z"
           inkscape:connector-curvature="0" />
        <path
           id="path3324"
           d="m 210.09387,553.78744 3.72866,0 0,1.1345 -3.72866,0 0,-1.1345 z"
           inkscape:connector-curvature="0" />
        <path
           id="path3326"
           d="m 220.7956,550.71596 0,1.20369 q -0.53959,-0.27671 -1.12068,-0.41506 -0.58108,-0.13836 -1.20368,-0.13836 -0.94773,0 -1.42505,0.29055 -0.47041,0.29054 -0.47041,0.87163 0,0.44273 0.33897,0.69869 0.33897,0.24904 1.36279,0.47732 l 0.43582,0.0969 q 1.35588,0.29055 1.92313,0.82321 0.57417,0.52575 0.57417,1.47348 0,1.07916 -0.8578,1.70868 -0.85088,0.62951 -2.34511,0.62951 -0.62259,0 -1.30053,-0.12452 -0.67102,-0.1176 -1.41813,-0.35972 l 0,-1.31437 q 0.7056,0.36664 1.39046,0.55342 0.68485,0.17986 1.35587,0.17986 0.89931,0 1.38355,-0.30438 0.48424,-0.3113 0.48424,-0.87164 0,-0.51882 -0.3528,-0.79553 -0.34589,-0.27671 -1.52882,-0.53267 l -0.44274,-0.10376 q -1.18293,-0.24904 -1.70868,-0.76095 -0.52574,-0.51883 -0.52574,-1.41814 0,-1.093 0.77478,-1.68792 0.77479,-0.59493 2.19984,-0.59493 0.70561,0 1.3282,0.10377 0.6226,0.10376 1.14835,0.31129 z"
           inkscape:connector-curvature="0" />
        <path
           id="path3328"
           d="m 223.24447,550.48768 1.27286,0 0,7.74785 -1.27286,0 0,-7.74785 z m 0,-3.01613 1.27286,0 0,1.61183 -1.27286,0 0,-1.61183 z"
           inkscape:connector-curvature="0" />
        <path
           id="path3330"
           d="m 228.43277,548.28784 0,2.19984 2.62182,0 0,0.98923 -2.62182,0 0,4.20598 q 0,0.94773 0.25596,1.21752 0.26287,0.26979 1.05841,0.26979 l 1.30745,0 0,1.06533 -1.30745,0 q -1.47348,0 -2.03381,-0.5465 -0.56034,-0.55341 -0.56034,-2.00614 l 0,-4.20598 -0.93389,0 0,-0.98923 0.93389,0 0,-2.19984 1.27978,0 z"
           inkscape:connector-curvature="0" />
        <path
           id="path3332"
           d="m 239.36278,554.04339 0,0.6226 -5.8524,0 q 0.083,1.31437 0.78862,2.00614 0.71253,0.68485 1.97847,0.68485 0.73328,0 1.41814,-0.17986 0.69177,-0.17986 1.36971,-0.53958 l 0,1.20368 q -0.68486,0.29055 -1.4043,0.44274 -0.71945,0.15219 -1.45964,0.15219 -1.85395,0 -2.94004,-1.07917 -1.07916,-1.07916 -1.07916,-2.91928 0,-1.90237 1.02382,-3.01613 1.03074,-1.12067 2.77401,-1.12067 1.56341,0 2.46963,1.00999 0.91314,1.00307 0.91314,2.7325 z m -1.27286,-0.37356 q -0.0138,-1.04457 -0.58801,-1.66717 -0.56725,-0.62259 -1.50806,-0.62259 -1.06533,0 -1.70868,0.60184 -0.63643,0.60184 -0.73328,1.69484 l 4.53803,-0.007 z"
           inkscape:connector-curvature="0" />
        <path
           id="path3334"
           d="m 241.6318,556.47843 1.45964,0 0,1.7571 -1.45964,0 0,-1.7571 z"
           inkscape:connector-curvature="0" />
        <path
           id="path3336"
           d="m 251.53798,550.78514 0,1.18985 q -0.53958,-0.29746 -1.08608,-0.44273 -0.53958,-0.15219 -1.093,-0.15219 -1.23827,0 -1.92313,0.78862 -0.68485,0.7817 -0.68485,2.19983 0,1.41814 0.68485,2.20676 0.68486,0.7817 1.92313,0.7817 0.55342,0 1.093,-0.14527 0.5465,-0.15219 1.08608,-0.44965 l 0,1.17601 q -0.53266,0.24904 -1.10683,0.37356 -0.56726,0.12452 -1.2106,0.12452 -1.75019,0 -2.78093,-1.09992 -1.03074,-1.09992 -1.03074,-2.96771 0,-1.89545 1.03766,-2.98154 1.04457,-1.08608 2.85702,-1.08608 0.58801,0 1.14834,0.12452 0.56034,0.1176 1.08608,0.35972 z"
           inkscape:connector-curvature="0" />
        <path
           id="path3338"
           d="m 256.76778,551.38007 q -1.02382,0 -1.61875,0.80245 -0.59492,0.79554 -0.59492,2.186 0,1.39047 0.58801,2.19292 0.59492,0.79554 1.62566,0.79554 1.01691,0 1.61183,-0.80245 0.59493,-0.80246 0.59493,-2.18601 0,-1.37662 -0.59493,-2.17908 -0.59492,-0.80937 -1.61183,-0.80937 z m 0,-1.07917 q 1.66026,0 2.60799,1.07917 0.94772,1.07916 0.94772,2.98845 0,1.90238 -0.94772,2.98846 -0.94773,1.07917 -2.60799,1.07917 -1.66717,0 -2.6149,-1.07917 -0.94081,-1.08608 -0.94081,-2.98846 0,-1.90929 0.94081,-2.98845 0.94773,-1.07917 2.6149,-1.07917 z"
           inkscape:connector-curvature="0" />
        <path
           id="path3340"
           d="m 268.45874,551.97499 q 0.47733,-0.8578 1.14143,-1.26594 0.6641,-0.40815 1.5634,-0.40815 1.21061,0 1.86779,0.85088 0.65718,0.84396 0.65718,2.40737 l 0,4.67638 -1.27977,0 0,-4.63487 q 0,-1.11376 -0.39432,-1.65334 -0.39431,-0.53958 -1.20368,-0.53958 -0.98924,0 -1.56341,0.65718 -0.57417,0.65719 -0.57417,1.79169 l 0,4.37892 -1.27978,0 0,-4.63487 q 0,-1.12068 -0.39431,-1.65334 -0.39431,-0.53958 -1.21752,-0.53958 -0.9754,0 -1.54957,0.6641 -0.57417,0.65718 -0.57417,1.78477 l 0,4.37892 -1.27978,0 0,-7.74785 1.27978,0 0,1.20368 q 0.43582,-0.71252 1.04458,-1.05149 0.60876,-0.33897 1.4458,-0.33897 0.84396,0 1.43197,0.4289 0.59493,0.4289 0.87855,1.24519 z"
           inkscape:connector-curvature="0" />
        <path
           id="path3342"
           d="m 278.49637,547.90737 1.17601,0 -3.59722,11.64253 -1.17601,0 3.59722,-11.64253 z"
           inkscape:connector-curvature="0" />
        <path
           id="path3344"
           d="m 284.54246,554.34085 q -1.54266,0 -2.13758,0.35281 -0.59493,0.3528 -0.59493,1.20368 0,0.67794 0.44274,1.07917 0.44965,0.39431 1.21752,0.39431 1.05841,0 1.69484,-0.74712 0.64335,-0.75403 0.64335,-1.99922 l 0,-0.28363 -1.26594,0 z m 2.5388,-0.52574 0,4.42042 -1.27286,0 0,-1.17601 q -0.43582,0.70561 -1.08608,1.04458 -0.65027,0.33205 -1.59108,0.33205 -1.18985,0 -1.89546,-0.6641 -0.69869,-0.67102 -0.69869,-1.79169 0,-1.30746 0.87163,-1.97156 0.87856,-0.6641 2.61491,-0.6641 l 1.78477,0 0,-0.12452 q 0,-0.87855 -0.58109,-1.35587 -0.57417,-0.48424 -1.61875,-0.48424 -0.6641,0 -1.29361,0.1591 -0.62952,0.15911 -1.21061,0.47733 l 0,-1.17602 q 0.6987,-0.26979 1.35588,-0.40122 0.65718,-0.13836 1.27978,-0.13836 1.68101,0 2.51113,0.87163 0.83013,0.87164 0.83013,2.64258 z"
           inkscape:connector-curvature="0" />
        <path
           id="path3346"
           d="m 288.96981,550.48768 1.27286,0 1.59108,6.04609 1.58416,-6.04609 1.50115,0 1.59107,6.04609 1.58416,-6.04609 1.27287,0 -2.0269,7.74785 -1.50115,0 -1.66717,-6.35047 -1.67409,6.35047 -1.50115,0 -2.02689,-7.74785 z"
           inkscape:connector-curvature="0" />
        <path
           id="path3348"
           d="m 307.93129,554.04339 0,0.6226 -5.8524,0 q 0.083,1.31437 0.78862,2.00614 0.71253,0.68485 1.97847,0.68485 0.73328,0 1.41814,-0.17986 0.69177,-0.17986 1.36971,-0.53958 l 0,1.20368 q -0.68486,0.29055 -1.4043,0.44274 -0.71944,0.15219 -1.45964,0.15219 -1.85395,0 -2.94003,-1.07917 -1.07917,-1.07916 -1.07917,-2.91928 0,-1.90237 1.02382,-3.01613 1.03075,-1.12067 2.77401,-1.12067 1.56341,0 2.46963,1.00999 0.91314,1.00307 0.91314,2.7325 z m -1.27286,-0.37356 q -0.0138,-1.04457 -0.58801,-1.66717 -0.56725,-0.62259 -1.50806,-0.62259 -1.06533,0 -1.70868,0.60184 -0.63643,0.60184 -0.73328,1.69484 l 4.53803,-0.007 z"
           inkscape:connector-curvature="0" />
        <path
           id="path3350"
           d="m 314.95971,550.71596 0,1.20369 q -0.53959,-0.27671 -1.12068,-0.41506 -0.58109,-0.13836 -1.20368,-0.13836 -0.94773,0 -1.42505,0.29055 -0.47041,0.29054 -0.47041,0.87163 0,0.44273 0.33897,0.69869 0.33897,0.24904 1.36279,0.47732 l 0.43582,0.0969 q 1.35587,0.29055 1.92313,0.82321 0.57417,0.52575 0.57417,1.47348 0,1.07916 -0.8578,1.70868 -0.85088,0.62951 -2.34511,0.62951 -0.62259,0 -1.30053,-0.12452 -0.67102,-0.1176 -1.41814,-0.35972 l 0,-1.31437 q 0.70561,0.36664 1.39047,0.55342 0.68485,0.17986 1.35587,0.17986 0.89931,0 1.38355,-0.30438 0.48424,-0.3113 0.48424,-0.87164 0,-0.51882 -0.35281,-0.79553 -0.34588,-0.27671 -1.52881,-0.53267 l -0.44274,-0.10376 q -1.18293,-0.24904 -1.70868,-0.76095 -0.52574,-0.51883 -0.52574,-1.41814 0,-1.093 0.77478,-1.68792 0.77479,-0.59493 2.19984,-0.59493 0.70561,0 1.3282,0.10377 0.6226,0.10376 1.14835,0.31129 z"
           inkscape:connector-curvature="0" />
        <path
           id="path3352"
           d="m 320.41088,551.38007 q -1.02382,0 -1.61875,0.80245 -0.59492,0.79554 -0.59492,2.186 0,1.39047 0.588,2.19292 0.59493,0.79554 1.62567,0.79554 1.0169,0 1.61183,-0.80245 0.59492,-0.80246 0.59492,-2.18601 0,-1.37662 -0.59492,-2.17908 -0.59493,-0.80937 -1.61183,-0.80937 z m 0,-1.07917 q 1.66025,0 2.60798,1.07917 0.94773,1.07916 0.94773,2.98845 0,1.90238 -0.94773,2.98846 -0.94773,1.07917 -2.60798,1.07917 -1.66717,0 -2.6149,-1.07917 -0.94081,-1.08608 -0.94081,-2.98846 0,-1.90929 0.94081,-2.98845 0.94773,-1.07917 2.6149,-1.07917 z"
           inkscape:connector-curvature="0" />
        <path
           id="path3354"
           d="m 332.10184,551.97499 q 0.47732,-0.8578 1.14142,-1.26594 0.66411,-0.40815 1.56341,-0.40815 1.2106,0 1.86779,0.85088 0.65718,0.84396 0.65718,2.40737 l 0,4.67638 -1.27978,0 0,-4.63487 q 0,-1.11376 -0.39431,-1.65334 -0.39431,-0.53958 -1.20368,-0.53958 -0.98924,0 -1.56341,0.65718 -0.57417,0.65719 -0.57417,1.79169 l 0,4.37892 -1.27978,0 0,-4.63487 q 0,-1.12068 -0.39431,-1.65334 -0.39431,-0.53958 -1.21752,-0.53958 -0.9754,0 -1.54957,0.6641 -0.57417,0.65718 -0.57417,1.78477 l 0,4.37892 -1.27978,0 0,-7.74785 1.27978,0 0,1.20368 q 0.43581,-0.71252 1.04457,-1.05149 0.60876,-0.33897 1.44581,-0.33897 0.84396,0 1.43197,0.4289 0.59492,0.4289 0.87855,1.24519 z"
           inkscape:connector-curvature="0" />
        <path
           id="path3356"
           d="m 346.50455,554.04339 0,0.6226 -5.8524,0 q 0.083,1.31437 0.78862,2.00614 0.71253,0.68485 1.97847,0.68485 0.73328,0 1.41814,-0.17986 0.69177,-0.17986 1.36971,-0.53958 l 0,1.20368 q -0.68486,0.29055 -1.4043,0.44274 -0.71945,0.15219 -1.45964,0.15219 -1.85395,0 -2.94004,-1.07917 -1.07916,-1.07916 -1.07916,-2.91928 0,-1.90237 1.02382,-3.01613 1.03074,-1.12067 2.77401,-1.12067 1.56341,0 2.46963,1.00999 0.91314,1.00307 0.91314,2.7325 z m -1.27286,-0.37356 q -0.0138,-1.04457 -0.58801,-1.66717 -0.56725,-0.62259 -1.50806,-0.62259 -1.06533,0 -1.70868,0.60184 -0.63643,0.60184 -0.73328,1.69484 l 4.53803,-0.007 z"
           inkscape:connector-curvature="0" />
        <path
           id="path3358"
           d="m 347.95036,553.78744 3.72865,0 0,1.1345 -3.72865,0 0,-1.1345 z"
           inkscape:connector-curvature="0" />
        <path
           id="path3360"
           d="m 357.23394,554.34085 q -1.54266,0 -2.13758,0.35281 -0.59492,0.3528 -0.59492,1.20368 0,0.67794 0.44273,1.07917 0.44965,0.39431 1.21752,0.39431 1.05841,0 1.69484,-0.74712 0.64335,-0.75403 0.64335,-1.99922 l 0,-0.28363 -1.26594,0 z m 2.5388,-0.52574 0,4.42042 -1.27286,0 0,-1.17601 q -0.43581,0.70561 -1.08608,1.04458 -0.65027,0.33205 -1.59108,0.33205 -1.18985,0 -1.89546,-0.6641 -0.69869,-0.67102 -0.69869,-1.79169 0,-1.30746 0.87164,-1.97156 0.87855,-0.6641 2.6149,-0.6641 l 1.78477,0 0,-0.12452 q 0,-0.87855 -0.58109,-1.35587 -0.57417,-0.48424 -1.61874,-0.48424 -0.66411,0 -1.29362,0.1591 -0.62951,0.15911 -1.2106,0.47733 l 0,-1.17602 q 0.69869,-0.26979 1.35587,-0.40122 0.65719,-0.13836 1.27978,-0.13836 1.68101,0 2.51114,0.87163 0.83012,0.87164 0.83012,2.64258 z"
           inkscape:connector-curvature="0" />
        <path
           id="path3362"
           d="m 363.63285,557.07336 0,4.10913 -1.27978,0 0,-10.69481 1.27978,0 0,1.17601 q 0.40122,-0.69177 1.00998,-1.02382 0.61568,-0.33897 1.46656,-0.33897 1.41122,0 2.28977,1.12067 0.88547,1.12067 0.88547,2.94695 0,1.82628 -0.88547,2.94696 -0.87855,1.12067 -2.28977,1.12067 -0.85088,0 -1.46656,-0.33205 -0.60876,-0.33897 -1.00998,-1.03074 z m 4.33049,-2.70484 q 0,-1.40429 -0.58109,-2.19983 -0.57417,-0.80246 -1.58416,-0.80246 -1.00998,0 -1.59107,0.80246 -0.57417,0.79554 -0.57417,2.19983 0,1.4043 0.57417,2.20676 0.58109,0.79554 1.59107,0.79554 1.00999,0 1.58416,-0.79554 0.58109,-0.80246 0.58109,-2.20676 z"
           inkscape:connector-curvature="0" />
        <path
           id="path3364"
           d="m 372.62589,557.07336 0,4.10913 -1.27978,0 0,-10.69481 1.27978,0 0,1.17601 q 0.40123,-0.69177 1.00999,-1.02382 0.61567,-0.33897 1.46655,-0.33897 1.41122,0 2.28977,1.12067 0.88547,1.12067 0.88547,2.94695 0,1.82628 -0.88547,2.94696 -0.87855,1.12067 -2.28977,1.12067 -0.85088,0 -1.46655,-0.33205 -0.60876,-0.33897 -1.00999,-1.03074 z m 4.3305,-2.70484 q 0,-1.40429 -0.58109,-2.19983 -0.57418,-0.80246 -1.58416,-0.80246 -1.00999,0 -1.59108,0.80246 -0.57417,0.79554 -0.57417,2.19983 0,1.4043 0.57417,2.20676 0.58109,0.79554 1.59108,0.79554 1.00998,0 1.58416,-0.79554 0.58109,-0.80246 0.58109,-2.20676 z"
           inkscape:connector-curvature="0" />
        <path
           id="path3366"
           d="m 380.56743,556.47843 1.45965,0 0,1.7571 -1.45965,0 0,-1.7571 z"
           inkscape:connector-curvature="0" />
        <path
           id="path3368"
           d="m 391.33835,553.55915 0,4.67638 -1.27286,0 0,-4.63487 q 0,-1.09992 -0.4289,-1.64642 -0.4289,-0.5465 -1.28669,-0.5465 -1.03075,0 -1.62567,0.65718 -0.59492,0.65719 -0.59492,1.79169 l 0,4.37892 -1.27978,0 0,-10.76398 1.27978,0 0,4.21981 q 0.45657,-0.69869 1.07224,-1.04457 0.6226,-0.34589 1.43197,-0.34589 1.33512,0 2.01998,0.83013 0.68485,0.82321 0.68485,2.42812 z"
           inkscape:connector-curvature="0" />
        <path
           id="path3370"
           d="m 395.15002,548.28784 0,2.19984 2.62182,0 0,0.98923 -2.62182,0 0,4.20598 q 0,0.94773 0.25595,1.21752 0.26288,0.26979 1.05842,0.26979 l 1.30745,0 0,1.06533 -1.30745,0 q -1.47348,0 -2.03382,-0.5465 -0.56033,-0.55341 -0.56033,-2.00614 l 0,-4.20598 -0.93389,0 0,-0.98923 0.93389,0 0,-2.19984 1.27978,0 z"
           inkscape:connector-curvature="0" />
        <path
           id="path3372"
           d="m 405.48511,551.97499 q 0.47732,-0.8578 1.14142,-1.26594 0.66411,-0.40815 1.56341,-0.40815 1.2106,0 1.86779,0.85088 0.65718,0.84396 0.65718,2.40737 l 0,4.67638 -1.27978,0 0,-4.63487 q 0,-1.11376 -0.39431,-1.65334 -0.39431,-0.53958 -1.20368,-0.53958 -0.98924,0 -1.56341,0.65718 -0.57417,0.65719 -0.57417,1.79169 l 0,4.37892 -1.27978,0 0,-4.63487 q 0,-1.12068 -0.39431,-1.65334 -0.39431,-0.53958 -1.21752,-0.53958 -0.9754,0 -1.54957,0.6641 -0.57417,0.65718 -0.57417,1.78477 l 0,4.37892 -1.27978,0 0,-7.74785 1.27978,0 0,1.20368 q 0.43581,-0.71252 1.04457,-1.05149 0.60876,-0.33897 1.44581,-0.33897 0.84396,0 1.43197,0.4289 0.59492,0.4289 0.87855,1.24519 z"
           inkscape:connector-curvature="0" />
        <path
           id="path3374"
           d="m 413.26062,547.47155 1.27286,0 0,10.76398 -1.27286,0 0,-10.76398 z"
           inkscape:connector-curvature="0" />
      </g>
      <rect
         ry="0"
         rx="0"
         y="569.36218"
         x="2"
         height="1"
         width="746"
         id="rect3258"
         style="opacity:1;fill:#c2c2c2;fill-opacity:1;stroke:none;stroke-width:1;stroke-linecap:square;stroke-linejoin:round;stroke-miterlimit:4;stroke-dasharray:none;stroke-dashoffset:0;stroke-opacity:1" />
    </g>
  </g>
</svg>
